<?xml version="1.0" encoding="utf-8"?>
<!-- Generator: Adobe Illustrator 15.0.2, SVG Export Plug-In . SVG Version: 6.00 Build 0)  -->
<!DOCTYPE svg PUBLIC "-//W3C//DTD SVG 1.1//EN" "http://www.w3.org/Graphics/SVG/1.1/DTD/svg11.dtd">
<svg version="1.1" id="Layer_1" xmlns="http://www.w3.org/2000/svg" xmlns:xlink="http://www.w3.org/1999/xlink" x="0px" y="0px"
	 width="512px" height="512px" viewBox="0 0 512 512" enable-background="new 0 0 512 512" xml:space="preserve">
<path d="M368.763,364.026c-10.039,14.513-24.802,25.776-44.092,33.908c-19.329,8.145-42.171,12.236-68.553,12.236
	c-31.618,0-57.796-5.513-78.454-16.724c-14.651-8.026-26.559-18.724-35.724-32.092c-9.178-13.421-13.828-26.514-13.828-39.303
	c0-7.579,2.881-14.105,8.479-19.461c5.658-5.407,12.954-8.079,21.546-8.079c7.06,0,13.105,2.105,18.033,6.316
	c4.895,4.21,8.993,10.303,12.355,18.382c4.013,9.315,8.388,17.171,13.039,23.368c4.619,6.158,11.119,11.329,19.54,15.368
	c8.329,3.974,19.407,6.026,33.276,6.026c18.986,0,34.329-4.092,46.065-12.236c11.79-8.132,17.474-18.079,17.474-30.079
	c0-9.632-3.079-17.237-9.329-23.158c-6.315-6.026-14.486-10.579-24.618-13.763c-10.171-3.25-23.829-6.658-40.947-10.25
	c-22.987-5.066-42.217-10.855-57.77-17.579c-15.593-6.711-28.007-15.928-37.204-27.533c-9.224-11.776-13.815-26.336-13.815-43.632
	c0-16.5,4.842-31.178,14.565-44.032c9.71-12.855,23.757-22.698,42.085-29.526c18.25-6.882,39.744-10.297,64.369-10.297
	c19.69,0,36.717,2.276,51.138,6.829c14.382,4.546,26.368,10.579,35.947,18.146c9.526,7.506,16.526,15.474,20.961,23.835
	c4.435,8.362,6.671,16.553,6.671,24.52c0,7.454-2.882,14.165-8.486,20.086c-5.593,5.914-12.776,8.928-21.146,8.875
	c-7.553,0-13.474-1.711-17.579-5.408c-4-3.585-8.21-9.27-12.736-17.178c-5.737-11.039-12.632-19.631-20.618-25.776
	c-7.803-6.026-20.646-9.21-38.521-9.157c-16.546,0-29.782,3.354-39.77,10.013c-10.059,6.711-14.861,14.507-14.888,23.612
	c0.026,5.743,1.664,10.579,4.974,14.678c3.355,4.151,8.039,7.789,14.046,10.802c6.013,3.132,12.132,5.521,18.283,7.23
	c6.217,1.764,16.539,4.322,30.888,7.678c17.974,3.868,34.303,8.191,48.961,12.915c14.631,4.776,27.118,10.467,37.434,17.296
	c10.408,6.77,18.526,15.474,24.343,25.934c5.842,10.474,8.736,23.276,8.736,38.343C383.895,333.315,378.842,349.579,368.763,364.026
	z M490.618,293.092c1.908-12.065,2.921-24.46,2.921-37.092c0-131.185-106.354-237.513-237.546-237.513
	c-12.585,0-24.986,1.026-37.072,2.901C197.039,7.849,171.224,0,143.553,0C64.276,0,0,64.283,0,143.586
	c0,27.651,7.842,53.479,21.375,75.381C19.5,231.086,18.474,243.368,18.474,256c0,131.237,106.349,237.513,237.52,237.513
	c12.599,0,25.007-0.96,37.086-2.854c21.895,13.5,47.684,21.342,75.368,21.342C447.737,512,512,447.763,512,368.474
	C512,340.815,504.171,315,490.618,293.092z"/>
</svg>
